HIERARCHY
ROOT Hips
{
	OFFSET 0.000000 0.000000 0.000000
	CHANNELS 6 Xposition Yposition Zposition Zrotation Yrotation Xrotation 
	JOINT LHipJoint
	{
		OFFSET 0.000000 0.000000 0.000000
		CHANNELS 3 Zrotation Yrotation Xrotation
		JOINT LeftUpLeg
		{
			OFFSET 1.363060 -1.794630 0.839290
			CHANNELS 3 Zrotation Yrotation Xrotation
			JOINT LeftLeg
			{
				OFFSET 2.448110 -6.726130 0.000000
				CHANNELS 3 Zrotation Yrotation Xrotation
				JOINT LeftFoot
				{
					OFFSET 2.562200 -7.039590 0.000000
					CHANNELS 3 Zrotation Yrotation Xrotation
					JOINT LeftToeBase
					{
						OFFSET 0.157640 -0.433110 2.322550
						CHANNELS 3 Zrotation Yrotation Xrotation
						End Site
						{
							OFFSET 0.000000 0.000000 0.000000
						}
					}
				}
			}
		}
	}
	JOINT RHipJoint
	{
		OFFSET 0.000000 0.000000 0.000000
		CHANNELS 3 Zrotation Yrotation Xrotation
		JOINT RightUpLeg
		{
			OFFSET -1.305520 -1.794630 0.839290
			CHANNELS 3 Zrotation Yrotation Xrotation
			JOINT RightLeg
			{
				OFFSET -2.542530 -6.985550 0.000000
				CHANNELS 3 Zrotation Yrotation Xrotation
				JOINT RightFoot
				{
					OFFSET -2.568260 -7.056230 0.000000
					CHANNELS 3 Zrotation Yrotation Xrotation
					JOINT RightToeBase
					{
						OFFSET -0.164730 -0.452590 2.363150
						CHANNELS 3 Zrotation Yrotation Xrotation
						End Site
						{
							OFFSET 0.000000 0.000000 0.000000
						}
					}
				}
			}
		}
	}
	JOINT LowerBack
	{
		OFFSET 0.000000 0.000000 0.000000
		CHANNELS 3 Zrotation Yrotation Xrotation
		JOINT Spine
		{
			OFFSET 0.028270 2.035590 -0.193380
			CHANNELS 3 Zrotation Yrotation Xrotation
			JOINT Spine1
			{
				OFFSET 0.056720 2.048850 -0.042750
				CHANNELS 3 Zrotation Yrotation Xrotation
				JOINT Neck
				{
					OFFSET 0.000000 0.000000 0.000000
					CHANNELS 3 Zrotation Yrotation Xrotation
					JOINT Neck1
					{
						OFFSET -0.054170 1.746240 0.172020
						CHANNELS 3 Zrotation Yrotation Xrotation
						JOINT Head
						{
							OFFSET 0.104070 1.761360 -0.123970
							CHANNELS 3 Zrotation Yrotation Xrotation
							End Site
							{
								OFFSET 0.000000 0.000000 0.000000
							}
						}
					}
				}
				JOINT LeftShoulder
				{
					OFFSET 0.000000 0.000000 0.000000
					CHANNELS 3 Zrotation Yrotation Xrotation
					JOINT LeftArm
					{
						OFFSET 3.362410 1.200890 -0.311210
						CHANNELS 3 Zrotation Yrotation Xrotation
						JOINT LeftForeArm
						{
							OFFSET 4.983000 -0.000000 -0.000000
							CHANNELS 3 Zrotation Yrotation Xrotation
							JOINT LeftHand
							{
								OFFSET 3.483560 -0.000000 -0.000000
								CHANNELS 3 Zrotation Yrotation Xrotation
								JOINT LeftFingerBase
								{
									OFFSET 0.000000 0.000000 0.000000
									CHANNELS 3 Zrotation Yrotation Xrotation
									JOINT LeftHandIndex1
									{
										OFFSET 0.715260 -0.000000 -0.000000
										CHANNELS 3 Zrotation Yrotation Xrotation
										End Site
										{
											OFFSET 0.000000 0.000000 0.000000
										}
									}
								}
								JOINT LThumb
								{
									OFFSET 0.000000 0.000000 0.000000
									CHANNELS 3 Zrotation Yrotation Xrotation
									End Site
									{
										OFFSET 0.000000 0.000000 0.000000
									}
								}
							}
						}
					}
				}
				JOINT RightShoulder
				{
					OFFSET 0.000000 0.000000 0.000000
					CHANNELS 3 Zrotation Yrotation Xrotation
					JOINT RightArm
					{
						OFFSET -3.136600 1.374050 -0.404650
						CHANNELS 3 Zrotation Yrotation Xrotation
						JOINT RightForeArm
						{
							OFFSET -5.241900 -0.000000 -0.000000
							CHANNELS 3 Zrotation Yrotation Xrotation
							JOINT RightHand
							{
								OFFSET -3.444170 -0.000000 -0.000000
								CHANNELS 3 Zrotation Yrotation Xrotation
								JOINT RightFingerBase
								{
									OFFSET 0.000000 0.000000 0.000000
									CHANNELS 3 Zrotation Yrotation Xrotation
									JOINT RightHandIndex1
									{
										OFFSET -0.622530 -0.000000 -0.000000
										CHANNELS 3 Zrotation Yrotation Xrotation
										End Site
										{
											OFFSET 0.000000 0.000000 0.000000
										}
									}
								}
								JOINT RThumb
								{
									OFFSET 0.000000 0.000000 0.000000
									CHANNELS 3 Zrotation Yrotation Xrotation
									End Site
									{
										OFFSET 0.000000 0.000000 0.000000
									}
								}
							}
						}
					}
				}
			}
		}
	}
}
MOTION
Frames: 11
Frame Time: 0.008333
9.158231 18.748304 -14.033991 -0.501963 2.644059 1.801276 10.747867 -3.537750 -7.937621 -31.859248 -3.488843 2.552048 5.956507 10.829884 31.931798 -2.295304 -20.900224 -34.603588 0.002600 0.330500 0.908000 -17.315149 1.633722 -16.064684 40.136641 -13.877350 23.524873 -4.025719 -2.205874 0.550436 -2.457881 4.037669 -37.703314 -0.710500 -5.387100 15.016100 7.559689 0.784475 11.326824 -13.023588 -4.287852 -38.681570 1.624375 -0.835259 0.538740 -1.909949 -3.542587 -5.724285 3.839484 -5.611328 33.782867 1.086600 -2.249000 5.120800 -5.851958 -0.869787 2.516066 57.309862 -52.724908 -73.906021 19.693797 -18.934555 -1.390305 0.690202 -1.427317 -1.235324 18.204337 -19.286429 -5.533300 -7.125000 0.000000 0.000000 -6.863600 11.441800 5.405500 9.377592 0.279080 0.772491 -46.464134 42.787161 -79.368960 -18.446611 20.723300 -1.128343 -4.511733 -4.102023 7.628716 -22.773712 -28.620183 8.007500 7.125000 0.000000 0.000000 11.366700 -55.203300 -2.874800 
9.159130 18.748394 -14.035789 -0.496072 2.619100 1.836466 10.760531 -3.523086 -7.938005 -31.878587 -3.483964 2.519573 5.953667 10.825699 31.906958 -2.294198 -20.890339 -34.603700 0.002400 0.315000 0.865600 -17.344092 1.601872 -16.051816 40.210009 -13.770624 23.379710 -4.039341 -2.271279 0.767242 -2.455149 4.096413 -37.790321 -0.709200 -5.382100 15.001600 7.571117 0.807361 11.314031 -13.068811 -4.279818 -38.688780 1.643441 -0.821889 0.515378 -1.783543 -3.526985 -5.813168 3.630112 -5.514387 33.763855 1.055600 -2.219900 5.124700 -5.859907 -0.840280 2.500464 57.324221 -52.700872 -73.618154 19.626134 -18.830146 -1.384459 0.703079 -1.426584 -1.446519 18.168726 -19.301594 -5.523000 -7.125000 0.000000 0.000000 -6.892600 11.432200 5.430100 9.352835 0.270835 0.781533 -46.352617 42.773500 -79.232227 -18.460897 20.752258 -1.135354 -4.489324 -4.131344 7.556429 -22.595228 -28.657081 7.939100 7.125000 0.000000 0.000000 11.533600 -55.181800 -2.911800 
9.160298 18.747855 -14.037856 -0.480319 2.605619 1.861972 10.763807 -3.514059 -7.932518 -31.904644 -3.499595 2.487861 5.952882 10.825557 31.899206 -2.291732 -20.881064 -34.607585 0.002500 0.325800 0.895100 -17.363585 1.588713 -16.050220 40.232408 -13.719813 23.314108 -4.047150 -2.295961 0.849607 -2.456104 4.114999 -37.830399 -0.704700 -5.365400 14.953800 7.591806 0.820167 11.311550 -13.151222 -4.291807 -38.687557 1.700197 -0.817283 0.502104 -1.551210 -3.545685 -5.855654 3.195951 -5.384340 33.620634 0.990000 -2.201200 5.106400 -5.865625 -0.808875 2.486075 57.310842 -52.728659 -73.590905 19.622921 -18.786804 -1.378500 0.683680 -1.424335 -1.352180 18.039766 -19.283005 -5.481000 -7.125000 0.000000 0.000000 -6.965600 11.461300 5.484300 9.315667 0.272333 0.788048 -46.240345 42.735315 -79.039032 -18.466597 20.776512 -1.141146 -4.472913 -4.160944 7.439579 -22.483026 -28.693123 7.897300 7.125000 0.000000 0.000000 11.644100 -55.175200 -2.938400 
9.161557 18.746866 -14.040103 -0.464245 2.600891 1.876699 10.763133 -3.507466 -7.925194 -31.930742 -3.525775 2.465331 5.952534 10.826595 31.897222 -2.288062 -20.873125 -34.616154 0.003000 0.350900 0.964300 -17.379490 1.581634 -16.051430 40.240828 -13.692508 23.273385 -4.051674 -2.310894 0.898560 -2.458815 4.120062 -37.858709 -0.697400 -5.338100 14.875600 7.620185 0.823763 11.320318 -13.246029 -4.315485 -38.681113 1.779881 -0.819325 0.493138 -1.246892 -3.588799 -5.867565 2.589783 -5.227591 33.414933 0.899100 -2.189100 5.075300 -5.870602 -0.774412 2.474617 57.263658 -52.799136 -73.759976 19.672021 -18.801582 -1.374431 0.653611 -1.423654 -1.043696 17.940057 -19.241099 -5.443800 -7.125000 0.000000 0.000000 -7.015000 11.510200 5.516700 9.267625 0.282120 0.794745 -46.127136 42.676975 -78.783515 -18.465530 20.797980 -1.144334 -4.467338 -4.192173 7.275094 -22.467825 -28.748728 7.899800 7.125000 0.000000 0.000000 11.681400 -55.208900 -2.957600 
9.162905 18.745517 -14.042620 -0.451345 2.606459 1.880841 10.759371 -3.503610 -7.916470 -31.952319 -3.561218 2.449005 5.953397 10.829691 31.904917 -2.285996 -20.872574 -34.625400 0.003700 0.393500 1.081200 -17.391859 1.578527 -16.053841 40.240104 -13.686775 23.252724 -4.053154 -2.317423 0.918757 -2.461791 4.115910 -37.872722 -0.692300 -5.319200 14.821300 7.656746 0.821156 11.336565 -13.343097 -4.345734 -38.668982 1.864159 -0.826476 0.484760 -0.923788 -3.642860 -5.859742 1.917964 -5.063327 33.202103 0.799100 -2.180400 5.040600 -5.875003 -0.740286 2.466510 57.193815 -52.885487 -74.010316 19.746376 -18.855703 -1.373847 0.634006 -1.426344 -0.660503 17.962150 -19.189751 -5.439500 -7.125000 0.000000 0.000000 -6.991700 11.559000 5.491000 9.215972 0.296515 0.801941 -46.022131 42.616270 -78.529110 -18.461123 20.811149 -1.143293 -4.475452 -4.216557 7.124278 -22.552567 -28.815845 7.947200 7.125000 0.000000 0.000000 11.639300 -55.279400 -2.966800 
9.164253 18.743630 -14.045047 -0.440970 2.618859 1.873546 10.754046 -3.501411 -7.908372 -31.969073 -3.594009 2.440321 5.954849 10.833859 31.918152 -2.290042 -20.885867 -34.622594 0.005000 0.455100 1.250600 -17.401928 1.576047 -16.055454 40.237007 -13.689804 23.237417 -4.052990 -2.325773 0.944226 -2.463420 4.116881 -37.886952 -0.692100 -5.318200 14.818300 7.695356 0.816157 11.358114 -13.432239 -4.376163 -38.653579 1.939612 -0.835495 0.474274 -0.634180 -3.692269 -5.846622 1.292908 -4.909918 33.028990 0.707300 -2.171200 5.010600 -5.875054 -0.709248 2.464617 57.096768 -52.974627 -74.271897 19.833477 -18.944858 -1.376538 0.626046 -1.433588 -0.287399 18.086241 -19.159305 -5.470000 -7.125000 0.000000 0.000000 -6.909300 11.580600 5.422200 9.166573 0.311295 0.808989 -45.937011 42.573858 -78.354772 -18.457598 20.811316 -1.138221 -4.492563 -4.230197 7.052603 -22.678140 -28.892932 8.016300 7.125000 0.000000 0.000000 11.566600 -55.373600 -2.974400 
9.165602 18.741562 -14.047295 -0.422496 2.630612 1.857302 10.747692 -3.498591 -7.899714 -31.993258 -3.622496 2.439387 5.956209 10.837984 31.930692 -2.300694 -20.912626 -34.602839 0.007000 0.539900 1.483600 -17.413852 1.570537 -16.054940 40.233546 -13.681634 23.207676 -4.054264 -2.349350 1.021651 -2.461700 4.143426 -37.922569 -0.697300 -5.337800 14.874600 7.728021 0.813705 11.376626 -13.523747 -4.404978 -38.626028 2.007391 -0.842633 0.462510 -0.417796 -3.726635 -5.836339 0.812665 -4.786525 32.915145 0.638200 -2.160900 4.989700 -5.866886 -0.686261 2.469171 56.987049 -53.062328 -74.553349 19.929247 -19.057060 -1.378565 0.613308 -1.446335 0.082760 18.196800 -19.184289 -5.512200 -7.125000 0.000000 0.000000 -6.834500 11.552700 5.366600 9.129621 0.323652 0.812252 -45.887470 42.556951 -78.316351 -18.456887 20.797578 -1.129802 -4.512351 -4.232471 7.097063 -22.783025 -28.976604 8.081500 7.125000 0.000000 0.000000 11.513700 -55.473700 -2.988700 
9.166860 18.739405 -14.049183 -0.396588 2.635535 1.836981 10.743081 -3.492574 -7.891278 -32.026726 -3.641962 2.445885 5.956414 10.840774 31.935847 -2.313542 -20.941589 -34.573958 0.009400 0.625500 1.718800 -17.430398 1.556958 -16.048962 40.243269 -13.642285 23.139360 -4.059685 -2.400941 1.195153 -2.452519 4.218929 -37.992436 -0.711200 -5.389800 15.023700 7.747448 0.817632 11.380392 -13.609804 -4.425482 -38.581438 2.069229 -0.844177 0.456610 -0.280116 -3.744024 -5.829839 0.495143 -4.696899 32.851329 0.594300 -2.149900 4.977200 -5.855703 -0.672319 2.476557 56.884697 -53.144703 -74.857528 20.025158 -19.169736 -1.376487 0.587427 -1.464354 0.443727 18.223779 -19.277583 -5.549800 -7.125000 0.000000 0.000000 -6.808600 11.469100 5.357800 9.110884 0.334903 0.808517 -45.882947 42.561721 -78.412281 -18.457034 20.770977 -1.120785 -4.528905 -4.223050 7.246163 -22.832820 -29.040756 8.121300 7.125000 0.000000 0.000000 11.498200 -55.547400 -3.005300 
9.167939 18.737517 -14.050711 -0.372302 2.634858 1.816322 10.742326 -3.483455 -7.885569 -32.058981 -3.642994 2.457721 5.954827 10.841035 31.930672 -2.325931 -20.967961 -34.543395 0.011200 0.682700 1.876000 -17.448425 1.536228 -16.036961 40.269830 -13.577134 23.037008 -4.068000 -2.474741 1.443826 -2.438862 4.325158 -38.085585 -0.727900 -5.451200 15.200000 7.749530 0.827113 11.363979 -13.666792 -4.430830 -38.525309 2.120929 -0.839836 0.466297 -0.216629 -3.744677 -5.817345 0.323147 -4.635104 32.796895 0.574300 -2.137300 4.967100 -5.850596 -0.665809 2.481091 56.803764 -53.211719 -75.145676 20.107313 -19.259595 -1.369683 0.549546 -1.483541 0.734801 18.138589 -19.421894 -5.568800 -7.125000 0.000000 0.000000 -6.849500 11.347500 5.407700 9.110056 0.346498 0.797276 -45.914610 42.571104 -78.558891 -18.457324 20.745565 -1.113966 -4.537916 -4.213027 7.412235 -22.823691 -29.087766 8.132300 7.125000 0.000000 0.000000 11.525300 -55.591400 -3.024900 
9.168838 18.736079 -14.052059 -0.352929 2.630946 1.801281 10.744876 -3.473022 -7.881428 -32.087207 -3.636852 2.468227 5.952436 10.839073 31.918044 -2.335531 -20.987906 -34.518605 0.012300 0.715500 1.966200 -17.465829 1.512608 -16.021726 40.306177 -13.502119 22.922521 -4.077619 -2.552612 1.706039 -2.424939 4.431327 -38.177363 -0.742500 -5.504300 15.352800 7.738921 0.841459 11.327960 -13.698659 -4.423656 -38.463145 2.162806 -0.830941 0.495484 -0.208771 -3.732490 -5.783504 0.267397 -4.596585 32.702212 0.573800 -2.124100 4.951600 -5.855264 -0.666696 2.478076 56.762421 -53.251458 -75.375788 20.162771 -19.309333 -1.360246 0.505240 -1.496758 0.903934 17.941392 -19.566941 -5.554400 -7.125000 0.000000 0.000000 -6.958000 11.232700 5.511200 9.125159 0.359323 0.778894 -45.972115 42.574501 -78.718622 -18.459181 20.728059 -1.110616 -4.538235 -4.208560 7.558725 -22.755382 -29.127456 8.115900 7.125000 0.000000 0.000000 11.599300 -55.612100 -3.050600 
9.169377 18.735180 -14.053407 -0.347284 2.625636 1.792881 10.749641 -3.463790 -7.879786 -32.100886 -3.628070 2.476102 5.949914 10.835542 31.902401 -2.338662 -20.996074 -34.511418 0.012300 0.715300 1.965800 -17.480146 1.489707 -16.004790 40.355595 -13.422315 22.818381 -4.086802 -2.619738 1.932791 -2.415289 4.515557 -38.257807 -0.756000 -5.553200 15.493200 7.725954 0.858967 11.278241 -13.709035 -4.407222 -38.404846 2.199303 -0.819998 0.549823 -0.206079 -3.712757 -5.701400 0.233618 -4.556627 32.485365 0.579100 -2.107500 4.917400 -5.872214 -0.671884 2.465656 56.751910 -53.268610 -75.543555 20.195993 -19.329794 -1.352100 0.465545 -1.501779 0.963942 17.714402 -19.670597 -5.518800 -7.125000 0.000000 0.000000 -7.085800 11.156000 5.625200 9.146907 0.377761 0.753284 -46.046723 42.565694 -78.877542 -18.461468 20.714318 -1.110147 -4.530584 -4.210163 7.682820 -22.632656 -29.160760 8.074100 7.125000 0.000000 0.000000 11.716700 -55.611200 -3.081800 
